<?xml version="1.0" encoding="utf-8"?>
<svg viewBox="-22.9752 54.8587 65.1502 24.8767" xmlns="http://www.w3.org/2000/svg">
  <path d="M 42.025 71.202 C 41.882 71.066 41.692 70.99 41.495 70.992 L 38.115 70.992 C 37.892 70.975 37.671 71.043 37.495 71.182 C 37.328 71.374 37.211 71.604 37.155 71.852 C 36.952 73.042 36.31 74.113 35.355 74.852 C 34.359 75.482 33.193 75.793 32.015 75.742 C 28.745 75.742 27.015 73.892 26.905 70.202 C 26.905 69.532 26.905 68.552 26.905 67.262 C 26.905 65.972 26.905 65.012 26.905 64.382 C 26.91 63.298 27.145 62.228 27.595 61.242 L 25.135 56.962 L 24.705 57.332 C 22.89 59.17 21.889 61.659 21.925 64.242 C 21.925 64.892 21.925 65.922 21.925 67.352 C 21.925 68.782 21.925 69.782 21.925 70.352 C 21.877 72.942 22.872 75.442 24.685 77.292 C 26.418 78.918 28.862 79.732 32.015 79.732 C 33.842 79.775 35.655 79.413 37.325 78.672 C 38.732 78.072 39.948 77.1 40.845 75.862 C 41.673 74.648 42.132 73.221 42.165 71.752 C 42.194 71.557 42.122 71.362 41.975 71.232" style="fill: rgb(255, 255, 255);" transform="matrix(1, 0, 0, 1, 7.105427357601002e-15, 8.881784197001252e-16)"/>
  <path d="M 32.025 58.862 C 33.21 58.807 34.383 59.117 35.385 59.752 C 36.325 60.501 36.958 61.568 37.165 62.752 C 37.217 63.001 37.335 63.232 37.505 63.422 C 37.681 63.561 37.902 63.629 38.125 63.612 L 41.455 63.612 C 41.637 63.612 41.812 63.545 41.945 63.422 C 42.09 63.309 42.174 63.135 42.175 62.952 L 42.175 62.922 C 42.129 61.469 41.668 60.06 40.845 58.862 C 39.966 57.575 38.748 56.558 37.325 55.922 C 35.658 55.182 33.848 54.82 32.025 54.862 C 30.643 54.842 29.265 55.041 27.945 55.452 L 30.025 59.162 C 30.671 58.952 31.347 58.851 32.025 58.862" style="fill: rgb(255, 255, 255);" transform="matrix(1, 0, 0, 1, 7.105427357601002e-15, 8.881784197001252e-16)"/>
  <path d="M -13.785 55.212 L -14.975 55.212 L -14.975 59.212 L -13.975 59.212 C -12.448 59.082 -10.932 59.56 -9.755 60.542 C -8.766 61.698 -8.264 63.193 -8.355 64.712 C -8.355 66.052 -8.285 66.912 -8.285 67.272 C -8.285 67.632 -8.285 68.492 -8.355 69.872 C -8.247 71.408 -8.722 72.929 -9.685 74.132 C -10.835 75.087 -12.316 75.547 -13.805 75.412 L -18.135 75.412 L -18.135 55.212 L -22.135 55.212 C -22.36 55.201 -22.579 55.289 -22.735 55.452 C -22.894 55.619 -22.98 55.841 -22.975 56.072 L -22.975 78.602 C -22.979 78.823 -22.892 79.036 -22.735 79.192 C -22.584 79.349 -22.373 79.437 -22.155 79.432 L -13.615 79.432 C -10.205 79.432 -7.685 78.672 -6.055 77.132 C -4.425 75.592 -3.555 73.222 -3.465 69.992 C -3.465 68.652 -3.395 67.762 -3.395 67.322 C -3.395 66.882 -3.395 65.962 -3.465 64.622 C -3.598 58.342 -7.038 55.205 -13.785 55.212" style="fill: rgb(255, 255, 255);" transform="matrix(1, 0, 0, 1, 7.105427357601002e-15, 8.881784197001252e-16)"/>
  <path d="M 19.535 78.332 L 14.535 69.502 C 15.889 69.057 17.066 68.192 17.895 67.032 C 18.726 65.777 19.145 64.295 19.095 62.792 C 19.223 60.652 18.342 58.577 16.715 57.182 C 14.822 55.754 12.483 55.045 10.115 55.182 L 8.425 55.182 L 8.425 59.082 L 10.025 59.082 C 11.145 59.012 12.249 59.369 13.115 60.082 C 13.825 60.802 14.189 61.793 14.115 62.802 C 14.195 63.799 13.829 64.78 13.115 65.482 C 12.235 66.161 11.134 66.489 10.025 66.402 L 5.275 66.402 L 5.275 55.212 L 1.275 55.212 C 1.05 55.201 0.831 55.289 0.675 55.452 C 0.523 55.622 0.445 55.844 0.455 56.072 L 0.455 78.602 C 0.45 79.059 0.818 79.432 1.275 79.432 L 4.435 79.432 C 4.666 79.44 4.89 79.354 5.055 79.192 C 5.212 79.036 5.299 78.823 5.295 78.602 L 5.295 70.302 L 10.025 70.302 L 14.415 78.502 C 14.555 78.755 14.737 78.982 14.955 79.172 C 15.201 79.36 15.506 79.452 15.815 79.432 L 18.925 79.432 C 19.108 79.431 19.284 79.359 19.415 79.232 C 19.562 79.099 19.646 78.91 19.645 78.712 C 19.64 78.578 19.602 78.448 19.535 78.332" style="fill: rgb(255, 255, 255);" transform="matrix(1, 0, 0, 1, 7.105427357601002e-15, 8.881784197001252e-16)"/>
</svg>