<?xml version="1.0" encoding="utf-8"?>
<svg viewBox="421.7965 215.0383 70.2284 61.3" xmlns="http://www.w3.org/2000/svg">
  <polygon id="svg_1" points="58.1,12.2 40.5,37 40.5,37 40.5,72.6 75.6,52.4 75.6,18.5 " fill="#944031" transform="matrix(1, 0, 0, 1, 416.4249634806061, 203.63833921608833)"/>
  <path id="svg_2" d="m58.1,12.2l-2.6,-0.8l-17.3,24.3l-20.8,-12.1l0,0c0,0 -1.8,-0.7 -1.8,1.5c0,2 -0.4,3.5 1.8,4.8l5,2.9c0.2,0.1 0.3,0.4 0.2,0.6c-0.1,0.1 -0.2,0.2 -0.4,0.2c-0.1,0 -0.1,0 -0.2,-0.1l-2,-1.1l-11.3,-6.4c0,0 -1.8,-0.8 -1.8,1.6c0,2.1 -0.4,3.6 1.8,4.9c3.1,1.7 7.9,4.5 11.4,6.4c1.4,0.8 2.4,1.4 2.4,1.4c0.2,0.1 0.3,0.4 0.2,0.6c-0.1,0.1 -0.2,0.2 -0.4,0.2c-0.1,0 -0.1,0 -0.2,-0.1l-14.9,-8.5l0,0c0,0 -1.8,-0.8 -1.8,1.6c0,2.1 -0.4,3.6 1.8,4.9c5.1,2.9 5.1,2.9 15.2,8.7c0.2,0.1 0.3,0.4 0.2,0.6c-0.1,0.1 -0.2,0.2 -0.4,0.2c-0.1,0 -0.1,0 -0.2,-0.1l-14,-8.1c0,0 -1.8,-0.8 -1.8,1.6c0,2.1 -0.4,3.6 1.8,4.9l0,0c8.3,4.7 7.6,4.3 14.5,8.3c0.2,0.1 0.3,0.4 0.2,0.6c-0.1,0.1 -0.2,0.2 -0.4,0.2c-0.1,0 -0.1,0 -0.2,-0.1l-10.9,-6.1l0,0c0,0 -1.8,-0.7 -1.8,1.5c0,2 -0.4,3.4 1.8,4.7l29.4,16.8l0,-35.7l17.5,-24.8z" fill="#7F1416" class="second-color" transform="matrix(1, 0, 0, 1, 416.4249634806061, 203.63833921608833)"/>
</svg>