<?xml version="1.0" encoding="utf-8"?>
<svg viewBox="-166.6787 21.473 426.3997 104.6679" xmlns="http://www.w3.org/2000/svg">
  <polyline class="cls-5" points="-84.879 48.983 -84.879 31.003 -110.169 31.003" style="fill: none; stroke: rgb(255, 255, 255); stroke-miterlimit: 10; stroke-width: 1.8px;" transform="matrix(0.9999999999999999, 0, 0, 0.9999999999999999, 0, -2.842170943040401e-14)"/>
  <g transform="matrix(0.9999999999999999, 0, 0, 0.9999999999999999, -379.7287043888673, -522.1173783856237)">
    <g>
      <line class="cls-5" x1="288.83" y1="558.01" x2="288.83" y2="562.23" style="fill: none; stroke: rgb(255, 255, 255); stroke-miterlimit: 10; stroke-width: 1.8px;"/>
      <line class="cls-5" x1="282.14" y1="558.01" x2="282.14" y2="562.23" style="fill: none; stroke: rgb(255, 255, 255); stroke-miterlimit: 10; stroke-width: 1.8px;"/>
    </g>
    <line class="cls-5" x1="275.38" y1="558.01" x2="275.38" y2="562.23" style="fill: none; stroke: rgb(255, 255, 255); stroke-miterlimit: 10; stroke-width: 1.8px;"/>
  </g>
  <path class="cls-3" d="M -92.729 81.543 C -92.729 81.543 -93.479 83.803 -95.229 84.433 C -95.229 84.433 -95.339 85.353 -94.789 85.793 C -94.239 86.233 -92.499 87.023 -90.879 87.873 C -89.259 88.723 -88.779 89.913 -88.539 91.063 C -88.299 92.203 -87.929 93.673 -87.929 93.673 L -107.109 93.673 L -106.129 90.133 C -106.129 90.133 -105.779 88.693 -104.089 87.743 C -102.399 86.783 -100.899 86.193 -100.309 85.753 C -99.719 85.313 -99.799 84.463 -99.799 84.463 C -99.799 84.463 -101.719 83.593 -102.289 81.533 C -102.289 81.533 -103.759 82.013 -104.019 79.413 C -104.219 77.423 -102.819 78.143 -102.819 78.143 C -102.819 78.143 -102.989 77.023 -103.039 75.823 C -103.099 74.623 -102.859 73.073 -102.249 72.473 C -101.639 71.863 -101.289 71.223 -100.609 70.893 C -99.929 70.563 -98.639 70.303 -98.199 70.213 C -98.199 70.213 -96.029 69.753 -94.879 70.473 C -93.739 71.193 -93.549 71.003 -92.729 72.353 C -91.899 73.693 -91.899 74.733 -91.829 75.893 C -91.759 77.053 -92.179 78.063 -92.179 78.063 C -92.179 78.063 -91.999 78.083 -91.789 78.063 C -91.589 78.043 -90.739 78.083 -91.029 79.703 C -91.319 81.323 -91.969 81.693 -92.719 81.543 L -92.729 81.543 Z" style="fill: rgb(255, 255, 255); stroke-width: 0px;" transform="matrix(0.9999999999999999, 0, 0, 0.9999999999999999, 0, -2.842170943040401e-14)"/>
  <path class="cls-3" d="M -161.779 93.683 C -161.779 93.683 -162.289 92.423 -161.129 90.933 C -159.979 89.453 -156.639 88.263 -153.969 87.113 C -151.299 85.963 -149.919 84.903 -149.919 84.903 L -149.919 81.943 C -149.919 81.943 -150.779 80.923 -151.299 79.013 C -151.299 79.013 -152.569 79.013 -152.849 76.543 C -153.049 74.793 -151.989 74.533 -151.989 74.533 C -151.989 74.533 -152.349 71.973 -152.419 70.903 C -152.489 69.823 -151.929 67.443 -148.999 67.203 C -148.999 67.203 -147.749 65.943 -146.529 65.673 C -146.529 65.673 -147.059 66.133 -146.889 66.493 C -146.889 66.493 -145.539 65.343 -143.099 66.163 C -143.099 66.163 -143.329 66.063 -143.919 66.493 C -143.919 66.493 -142.899 66.293 -141.609 66.973 C -140.329 67.653 -140.029 67.453 -140.029 67.453 L -140.589 67.813 C -140.589 67.813 -138.579 68.603 -138.549 70.383 C -138.519 72.163 -138.989 74.533 -138.989 74.533 C -138.989 74.533 -137.929 74.803 -138.129 76.543 C -138.409 79.023 -139.679 79.013 -139.679 79.013 C -140.209 80.923 -141.059 81.943 -141.059 81.943 L -141.059 84.903 C -141.059 84.903 -139.679 85.953 -137.009 87.113 C -134.339 88.263 -130.999 89.453 -129.849 90.933 C -128.699 92.413 -129.199 93.683 -129.199 93.683" style="fill: rgb(255, 255, 255); stroke-width: 0px;" transform="matrix(0.9999999999999999, 0, 0, 0.9999999999999999, 0, -2.842170943040401e-14)"/>
  <polyline class="cls-5" points="-132.899 35.823 -132.899 21.473 -110.209 21.473 -110.209 30.193" style="fill: none; stroke: rgb(255, 255, 255); stroke-miterlimit: 10; stroke-width: 1.8px;" transform="matrix(0.9999999999999999, 0, 0, 0.9999999999999999, 0, -2.842170943040401e-14)"/>
  <polyline class="cls-5" points="-158.189 55.463 -158.189 35.823 -132.899 35.823" style="fill: none; stroke: rgb(255, 255, 255); stroke-miterlimit: 10; stroke-width: 1.8px;" transform="matrix(0.9999999999999999, 0, 0, 0.9999999999999999, 0, -2.842170943040401e-14)"/>
  <line class="cls-5" x1="-132.899" y1="33.623" x2="-132.899" y2="54.613" style="fill: none; stroke: rgb(255, 255, 255); stroke-miterlimit: 10; stroke-width: 1.8px;" transform="matrix(0.9999999999999999, 0, 0, 0.9999999999999999, 0, -2.842170943040401e-14)"/>
  <line class="cls-5" x1="-110.209" y1="29.053" x2="-110.209" y2="51.073" style="fill: none; stroke: rgb(255, 255, 255); stroke-miterlimit: 10; stroke-width: 1.8px;" transform="matrix(0.9999999999999999, 0, 0, 0.9999999999999999, 0, -2.842170943040401e-14)"/>
  <g transform="matrix(0.9999999999999999, 0, 0, 0.9999999999999999, -379.7287043888673, -522.1173783856237)">
    <g>
      <line class="cls-5" x1="254.41" y1="548.89" x2="254.41" y2="553.11" style="fill: none; stroke: rgb(255, 255, 255); stroke-miterlimit: 10; stroke-width: 1.8px;"/>
      <line class="cls-5" x1="261.62" y1="548.89" x2="261.62" y2="553.11" style="fill: none; stroke: rgb(255, 255, 255); stroke-miterlimit: 10; stroke-width: 1.8px;"/>
    </g>
    <line class="cls-5" x1="254.41" y1="556.01" x2="254.41" y2="560.23" style="fill: none; stroke: rgb(255, 255, 255); stroke-miterlimit: 10; stroke-width: 1.8px;"/>
    <line class="cls-5" x1="261.62" y1="556.01" x2="261.62" y2="560.23" style="fill: none; stroke: rgb(255, 255, 255); stroke-miterlimit: 10; stroke-width: 1.8px;"/>
    <line class="cls-5" x1="254.41" y1="563.13" x2="254.41" y2="567.35" style="fill: none; stroke: rgb(255, 255, 255); stroke-miterlimit: 10; stroke-width: 1.8px;"/>
    <line class="cls-5" x1="261.62" y1="563.13" x2="261.62" y2="567.35" style="fill: none; stroke: rgb(255, 255, 255); stroke-miterlimit: 10; stroke-width: 1.8px;"/>
  </g>
  <g transform="matrix(0.9999999999999999, 0, 0, 0.9999999999999999, -379.7287043888673, -522.1173783856237)">
    <line class="cls-5" x1="227.56" y1="563.13" x2="227.56" y2="567.35" style="fill: none; stroke: rgb(255, 255, 255); stroke-miterlimit: 10; stroke-width: 1.8px;"/>
    <line class="cls-5" x1="234.25" y1="563.13" x2="234.25" y2="567.35" style="fill: none; stroke: rgb(255, 255, 255); stroke-miterlimit: 10; stroke-width: 1.8px;"/>
  </g>
  <line class="cls-5" x1="-138.729" y1="41.013" x2="-138.729" y2="45.233" style="fill: none; stroke: rgb(255, 255, 255); stroke-miterlimit: 10; stroke-width: 1.8px;" transform="matrix(0.9999999999999999, 0, 0, 0.9999999999999999, 0, -2.842170943040401e-14)"/>
  <text class="cls-2" style="white-space: pre; fill: rgb(255, 255, 255); font-size: 29.16px; letter-spacing: 2.6244px; line-height: 46.656px; perspective-origin: 122.213px 13.2px;" x="-60.079" y="61.353" transform="matrix(0.9999999999999999, 0, 0, 0.9999999999999999, 0, -2.842170943040401e-14)"><tspan class="cls-6" style="font-family: AvenirNext-Medium, 'Avenir Next'; font-size: 29.2px; word-spacing: 0px; letter-spacing: 2.62px;"><tspan x="-60.079" y="61.353" style="font-size: 29.2px; word-spacing: 0px; letter-spacing: 2.62px;">GLOBAL</tspan></tspan><tspan class="cls-7" style="font-family: AvenirNext-Bold, 'AvenirNext Bold'; font-weight: 700; font-size: 29.2px; word-spacing: 0px; letter-spacing: 2.62px;"><tspan x="-60.079" y="94.353" style="font-size: 29.2px; word-spacing: 0px; letter-spacing: 2.62px;">SHELTER CLUSTER</tspan></tspan></text>
  <g transform="matrix(0.9999999999999999, 0, 0, 0.9999999999999999, -379.7287043888673, -522.1173783856237)">
    <line class="cls-4" x1="219.07" y1="578.76" x2="219.07" y2="589.13" style="fill: none; stroke: rgb(255, 255, 255); stroke-miterlimit: 10; stroke-width: 3px;"/>
    <polyline class="cls-4" points="246.03 576.44 234.33 571.1 213.05 581.78" style="fill: none; stroke: rgb(255, 255, 255); stroke-miterlimit: 10; stroke-width: 3px;"/>
    <line class="cls-4" x1="297.49" y1="573.46" x2="297.49" y2="588.91" style="fill: none; stroke: rgb(255, 255, 255); stroke-miterlimit: 10; stroke-width: 3px;"/>
    <polyline class="cls-4" points="302.75 575.61 282.16 566.37 264.66 574.19" style="fill: none; stroke: rgb(255, 255, 255); stroke-miterlimit: 10; stroke-width: 3px;"/>
    <polyline class="cls-4" points="214.69 590.97 258.11 570.84 301.26 591.05" style="fill: none; stroke: rgb(255, 255, 255); stroke-miterlimit: 10; stroke-width: 3px;"/>
  </g>
  <text class="cls-1" transform="matrix(0.9200000166893004, 0, 0, 0.9999999999999999, -161.23866512236987, 120.31265438068883)" style="white-space: pre; fill: rgb(255, 255, 255); font-family: Calibri, Calibri; font-size: 20.24px; line-height: 32.384px; perspective-origin: 118.425px 0px;"><tspan x="0" y="0">Coordinating Humanitarian Shelter and Settlements</tspan></text>
  <g transform="matrix(0.9999999999999999, 0, 0, 0.9999999999999999, -379.7287043888673, -522.1173783856237)">
    <path class="cls-3" d="M252.88,603.87c1.33-.32,1.48-2.85,1.39-4.75-.25-.27-.51-.56-.78-.9-1.05-1.33-1.67-2.5-1.8-3.72-.16-1.51-.23-2.98-.08-4.41.37-3.63,2.24-6.67,6.33-6.69h0s.01,0,.02,0,.01,0,.02,0h0c4.09.02,5.95,3.07,6.33,6.69.15,1.43.08,2.91-.08,4.41-.13,1.21-.75,2.39-1.8,3.72-.29.36-.56.67-.83.95-.11,1.79,0,4.13,1.28,4.62.41.16.35.87,0,1.79h5.66c-1.65-7.56-2.34-16.84-2.34-16.84-.6-5.56-3.58-8.8-8.32-8.8s-7.72,3.24-8.32,8.8c0,0-.7,9.28-2.34,16.84h5.69c-.37-.92-.44-1.61,0-1.72Z" style="fill: rgb(255, 255, 255); stroke-width: 0px;"/>
    <path class="cls-3" d="M262.35,601.33c.9.44,2.54,2.56,5.38,3.05,5.1.87,5.91,5.15,5.91,5.15l.36,6.27h-32.1l.36-6.27s.81-4.29,5.91-5.15c2.68-.46,4.29-2.54,5.21-2.97,0,0,.55,3.77,4.59,3.77s4.38-3.85,4.38-3.85Z" style="fill: rgb(255, 255, 255); stroke-width: 0px;"/>
  </g>
  <path class="cls-3" d="M -130.249 73.913 C -130.249 73.913 -129.909 68.263 -125.889 66.803 C -123.629 65.983 -118.749 65.153 -118.049 63.083 C -117.649 61.903 -117.569 61.963 -117.639 60.983 C -117.749 59.233 -125.699 58.703 -127.839 62.043 C -129.979 65.383 -130.249 73.913 -130.249 73.913 L -130.249 73.913 Z" style="fill: rgb(255, 255, 255); stroke-width: 0px;" transform="matrix(0.9999999999999999, 0, 0, 0.9999999999999999, 0, -2.842170943040401e-14)"/>
  <path class="cls-3" d="M -119.789 62.363 C -119.819 62.543 -119.169 64.213 -117.889 65.583 C -116.619 66.953 -115.419 67.963 -115.249 71.103 C -115.069 74.243 -114.729 73.693 -114.729 73.693 C -114.729 73.693 -114.179 63.333 -117.069 61.383 C -119.959 59.433 -119.609 61.173 -119.789 62.363 L -119.789 62.363 Z" style="fill: rgb(255, 255, 255); stroke-width: 0px;" transform="matrix(0.9999999999999999, 0, 0, 0.9999999999999999, 0, -2.842170943040401e-14)"/>
</svg>