<?xml version="1.0" encoding="utf-8"?>
<svg viewBox="271.763 199.343 89.7 72.2196" xmlns="http://www.w3.org/2000/svg">
  <polyline class="cls-5" points="353.563 226.863 353.563 208.883 328.273 208.883" style="fill: none; stroke: rgb(150, 139, 131); stroke-miterlimit: 10; stroke-width: 1.8px;"/>
  <g transform="matrix(1, 0, 0, 1, 226.3626284951363, 155.54257433924934)">
    <g>
      <line class="cls-5" x1="121.17" y1="58.22" x2="121.17" y2="62.44" style="fill: none; stroke: rgb(150, 139, 131); stroke-miterlimit: 10; stroke-width: 1.8px;"/>
      <line class="cls-5" x1="114.48" y1="58.22" x2="114.48" y2="62.44" style="fill: none; stroke: rgb(150, 139, 131); stroke-miterlimit: 10; stroke-width: 1.8px;"/>
    </g>
    <line class="cls-5" x1="107.73" y1="58.22" x2="107.73" y2="62.44" style="fill: none; stroke: rgb(150, 139, 131); stroke-miterlimit: 10; stroke-width: 1.8px;"/>
  </g>
  <path class="cls-6" d="M 345.713 259.413 C 345.713 259.413 344.963 261.673 343.213 262.303 C 343.213 262.303 343.103 263.223 343.653 263.663 C 344.203 264.103 345.943 264.893 347.563 265.743 C 349.183 266.593 349.663 267.783 349.903 268.933 C 350.143 270.073 350.513 271.543 350.513 271.543 L 331.333 271.543 L 332.313 268.003 C 332.313 268.003 332.663 266.563 334.353 265.613 C 336.043 264.653 337.543 264.063 338.133 263.623 C 338.723 263.183 338.643 262.333 338.643 262.333 C 338.643 262.333 336.733 261.463 336.153 259.403 C 336.153 259.403 334.683 259.883 334.423 257.283 C 334.223 255.293 335.623 256.013 335.623 256.013 C 335.623 256.013 335.463 254.893 335.403 253.693 C 335.343 252.493 335.583 250.943 336.193 250.343 C 336.803 249.743 337.153 249.093 337.833 248.763 C 338.513 248.433 339.803 248.173 340.243 248.083 C 340.243 248.083 342.413 247.623 343.563 248.343 C 344.703 249.063 344.893 248.873 345.713 250.223 C 346.543 251.563 346.543 252.603 346.613 253.763 C 346.683 254.923 346.263 255.933 346.263 255.933 C 346.263 255.933 346.443 255.953 346.653 255.933 C 346.853 255.913 347.703 255.953 347.413 257.573 C 347.123 259.193 346.473 259.563 345.723 259.413 L 345.713 259.413 Z" style="fill: rgb(184, 169, 153); stroke-width: 0px;"/>
  <path class="cls-7" d="M 276.663 271.553 C 276.663 271.553 276.153 270.293 277.313 268.803 C 278.463 267.323 281.803 266.133 284.473 264.983 C 287.143 263.833 288.523 262.773 288.523 262.773 L 288.523 259.813 C 288.523 259.813 287.663 258.793 287.143 256.883 C 287.143 256.883 285.873 256.883 285.593 254.413 C 285.393 252.663 286.453 252.403 286.453 252.403 C 286.453 252.403 286.093 249.843 286.023 248.773 C 285.953 247.693 286.513 245.313 289.443 245.073 C 289.443 245.073 290.693 243.813 291.913 243.543 C 291.913 243.543 291.383 244.003 291.553 244.363 C 291.553 244.363 292.903 243.213 295.343 244.033 C 295.343 244.033 295.113 243.933 294.523 244.363 C 294.523 244.363 295.543 244.163 296.833 244.843 C 298.113 245.523 298.413 245.323 298.413 245.323 L 297.853 245.683 C 297.853 245.683 299.863 246.473 299.893 248.253 C 299.923 250.033 299.453 252.403 299.453 252.403 C 299.453 252.403 300.513 252.673 300.313 254.413 C 300.033 256.893 298.763 256.883 298.763 256.883 C 298.233 258.793 297.383 259.813 297.383 259.813 L 297.383 262.773 C 297.383 262.773 298.763 263.823 301.433 264.983 C 304.103 266.133 307.443 267.323 308.593 268.803 C 309.743 270.283 309.243 271.553 309.243 271.553" style="fill: rgb(189, 170, 141); stroke-width: 0px;"/>
  <polyline class="cls-5" points="305.543 213.703 305.543 199.343 328.233 199.343 328.233 208.063" style="fill: none; stroke: rgb(150, 139, 131); stroke-miterlimit: 10; stroke-width: 1.8px;"/>
  <polyline class="cls-5" points="280.253 233.333 280.253 213.703 305.543 213.703" style="fill: none; stroke: rgb(150, 139, 131); stroke-miterlimit: 10; stroke-width: 1.8px;"/>
  <line class="cls-5" x1="305.543" y1="211.503" x2="305.543" y2="232.493" style="fill: none; stroke: rgb(150, 139, 131); stroke-miterlimit: 10; stroke-width: 1.8px;"/>
  <line class="cls-5" x1="328.233" y1="206.923" x2="328.233" y2="228.953" style="fill: none; stroke: rgb(150, 139, 131); stroke-miterlimit: 10; stroke-width: 1.8px;"/>
  <g transform="matrix(1, 0, 0, 1, 226.3626284951363, 155.54257433924934)">
    <g>
      <line class="cls-5" x1="86.76" y1="49.1" x2="86.76" y2="53.33" style="fill: none; stroke: rgb(150, 139, 131); stroke-miterlimit: 10; stroke-width: 1.8px;"/>
      <line class="cls-5" x1="93.97" y1="49.1" x2="93.97" y2="53.33" style="fill: none; stroke: rgb(150, 139, 131); stroke-miterlimit: 10; stroke-width: 1.8px;"/>
    </g>
    <line class="cls-5" x1="86.76" y1="56.22" x2="86.76" y2="60.44" style="fill: none; stroke: rgb(150, 139, 131); stroke-miterlimit: 10; stroke-width: 1.8px;"/>
    <line class="cls-5" x1="93.97" y1="56.22" x2="93.97" y2="60.44" style="fill: none; stroke: rgb(150, 139, 131); stroke-miterlimit: 10; stroke-width: 1.8px;"/>
    <line class="cls-5" x1="86.76" y1="63.34" x2="86.76" y2="67.57" style="fill: none; stroke: rgb(150, 139, 131); stroke-miterlimit: 10; stroke-width: 1.8px;"/>
    <line class="cls-5" x1="93.97" y1="63.34" x2="93.97" y2="67.57" style="fill: none; stroke: rgb(150, 139, 131); stroke-miterlimit: 10; stroke-width: 1.8px;"/>
  </g>
  <g transform="matrix(1, 0, 0, 1, 226.3626284951363, 155.54257433924934)">
    <line class="cls-5" x1="59.91" y1="63.34" x2="59.91" y2="67.56" style="fill: none; stroke: rgb(150, 139, 131); stroke-miterlimit: 10; stroke-width: 1.8px;"/>
    <line class="cls-5" x1="66.6" y1="63.34" x2="66.6" y2="67.56" style="fill: none; stroke: rgb(150, 139, 131); stroke-miterlimit: 10; stroke-width: 1.8px;"/>
  </g>
  <line class="cls-5" x1="299.713" y1="218.883" x2="299.713" y2="223.103" style="fill: none; stroke: rgb(150, 139, 131); stroke-miterlimit: 10; stroke-width: 1.8px;"/>
  <line class="cls-4" x1="277.783" y1="234.513" x2="277.783" y2="244.883" style="fill: none; stroke: rgb(100, 8, 17); stroke-miterlimit: 10; stroke-width: 3px;"/>
  <polyline class="cls-4" points="304.743 232.193 293.043 226.863 271.763 237.533" style="fill: none; stroke: rgb(100, 8, 17); stroke-miterlimit: 10; stroke-width: 3px;"/>
  <line class="cls-4" x1="356.203" y1="229.213" x2="356.203" y2="244.673" style="fill: none; stroke: rgb(100, 8, 17); stroke-miterlimit: 10; stroke-width: 3px;"/>
  <polyline class="cls-4" points="361.463 231.373 340.873 222.123 323.373 229.953" style="fill: none; stroke: rgb(100, 8, 17); stroke-miterlimit: 10; stroke-width: 3px;"/>
  <polyline class="cls-4" points="273.403 246.723 316.823 226.593 359.973 246.803" style="fill: none; stroke: rgb(100, 8, 17); stroke-miterlimit: 10; stroke-width: 3px;"/>
  <g transform="matrix(1, 0, 0, 1, 226.3626284951363, 155.54257433924934)">
    <path class="cls-2" d="M100.87,105.8c-1.65-7.56-2.34-16.84-2.34-16.84-.6-5.56-3.58-8.8-8.32-8.8s-7.72,3.24-8.32,8.8c0,0-.7,9.28-2.34,16.84" style="fill: rgb(100, 8, 17); stroke-width: 0px;"/>
    <g>
      <path class="cls-8" d="M89.53,111.8c2.31.83,7.21-7.19,5.68-7.79-2.12-.83-1.03-6.78-1.03-6.78h-7.76s.97,6.34-1.2,6.86c-1.61.39,3.53,8.54,5.84,7.71" style="fill: rgb(255, 255, 255); stroke-width: 0px;"/>
      <g>
        <path class="cls-2" d="M94.2,90.39c0,1.68.88,3.04,1.97,3.04.46,0,1.97-1.36,1.97-3.04s-.88-3.05-1.97-3.05-1.97,1.37-1.97,3.05Z" style="fill: rgb(100, 8, 17); stroke-width: 0px;"/>
        <path class="cls-2" d="M86.26,90.39c0,1.68-.88,3.04-1.97,3.04-.46,0-1.97-1.36-1.97-3.04s.88-3.05,1.97-3.05,1.97,1.37,1.97,3.05Z" style="fill: rgb(100, 8, 17); stroke-width: 0px;"/>
        <path class="cls-8" d="M96.64,90.31c-.37-3.63-2.24-6.67-6.33-6.69h0s-.01,0-.02,0-.01,0-.02,0h0c-4.09.02-5.95,3.07-6.33,6.69-.15,1.43-.08,2.91.08,4.41.13,1.21.75,2.39,1.8,3.72,1.86,2.35,3.34,2.87,4.45,2.88h0s.01,0,.02,0c0,0,.01,0,.02,0h0c1.11-.01,2.59-.53,4.45-2.88,1.05-1.33,1.67-2.5,1.8-3.72.16-1.51.23-2.98.08-4.41Z" style="fill: rgb(255, 255, 255); stroke-width: 0px;"/>
      </g>
    </g>
    <path class="cls-2" d="M94.7,101.55c.9.44,2.54,2.56,5.38,3.05,5.1.87,5.91,5.15,5.91,5.15l.36,6.27h-32.1l.36-6.27s.81-4.29,5.91-5.15c2.68-.46,4.29-2.54,5.21-2.97,0,0,.55,3.77,4.59,3.77s4.38-3.85,4.38-3.85Z" style="fill: rgb(100, 8, 17); stroke-width: 0px;"/>
  </g>
  <path class="cls-2" d="M 308.193 251.783 C 308.193 251.783 308.533 246.133 312.553 244.673 C 314.813 243.853 319.693 243.023 320.393 240.953 C 320.793 239.773 320.873 239.833 320.803 238.853 C 320.693 237.103 312.743 236.573 310.603 239.913 C 308.463 243.253 308.193 251.783 308.193 251.783 Z" style="fill: rgb(100, 8, 17); stroke-width: 0px;"/>
  <path class="cls-2" d="M 318.653 240.233 C 318.623 240.413 319.273 242.083 320.553 243.453 C 321.823 244.823 323.023 245.833 323.193 248.973 C 323.373 252.113 323.713 251.553 323.713 251.553 C 323.713 251.553 324.263 241.193 321.373 239.243 C 318.483 237.293 318.833 239.033 318.653 240.223 L 318.653 240.233 Z" style="fill: rgb(100, 8, 17); stroke-width: 0px;"/>
</svg>