<?xml version="1.0" encoding="utf-8"?>
<svg viewBox="-165.197 0.317 426.4 104.6684" xmlns="http://www.w3.org/2000/svg">
  <polyline class="cls-5" points="-83.397 27.837 -83.397 9.857 -108.687 9.857" style="fill: none; stroke: rgb(150, 139, 131); stroke-miterlimit: 10; stroke-width: 1.8px;" transform="matrix(1, 0, 0, 1, 0, 2.842170943040401e-14)"/>
  <g transform="matrix(1, 0, 0, 1, -210.59691170747445, -43.48288410131458)">
    <g>
      <line class="cls-5" x1="121.17" y1="58.22" x2="121.17" y2="62.44" style="fill: none; stroke: rgb(150, 139, 131); stroke-miterlimit: 10; stroke-width: 1.8px;"/>
      <line class="cls-5" x1="114.48" y1="58.22" x2="114.48" y2="62.44" style="fill: none; stroke: rgb(150, 139, 131); stroke-miterlimit: 10; stroke-width: 1.8px;"/>
    </g>
    <line class="cls-5" x1="107.73" y1="58.22" x2="107.73" y2="62.44" style="fill: none; stroke: rgb(150, 139, 131); stroke-miterlimit: 10; stroke-width: 1.8px;"/>
  </g>
  <path class="cls-6" d="M -91.247 60.387 C -91.247 60.387 -91.997 62.647 -93.747 63.277 C -93.747 63.277 -93.857 64.197 -93.307 64.637 C -92.757 65.077 -91.017 65.867 -89.397 66.717 C -87.777 67.567 -87.297 68.757 -87.057 69.907 C -86.817 71.047 -86.447 72.517 -86.447 72.517 L -105.627 72.517 L -104.647 68.977 C -104.647 68.977 -104.297 67.537 -102.607 66.587 C -100.917 65.627 -99.417 65.037 -98.827 64.597 C -98.237 64.157 -98.317 63.307 -98.317 63.307 C -98.317 63.307 -100.227 62.437 -100.807 60.377 C -100.807 60.377 -102.277 60.857 -102.537 58.257 C -102.737 56.267 -101.337 56.987 -101.337 56.987 C -101.337 56.987 -101.497 55.867 -101.557 54.667 C -101.617 53.467 -101.377 51.917 -100.767 51.317 C -100.157 50.717 -99.807 50.067 -99.127 49.737 C -98.447 49.407 -97.157 49.147 -96.717 49.057 C -96.717 49.057 -94.547 48.597 -93.397 49.317 C -92.257 50.037 -92.067 49.847 -91.247 51.197 C -90.417 52.537 -90.417 53.577 -90.347 54.737 C -90.277 55.897 -90.697 56.907 -90.697 56.907 C -90.697 56.907 -90.517 56.927 -90.307 56.907 C -90.107 56.887 -89.257 56.927 -89.547 58.547 C -89.837 60.167 -90.487 60.537 -91.237 60.387 L -91.247 60.387 Z" style="fill: rgb(184, 169, 153); stroke-width: 0px;" transform="matrix(1, 0, 0, 1, 0, 2.842170943040401e-14)"/>
  <path class="cls-7" d="M -160.297 72.527 C -160.297 72.527 -160.807 71.267 -159.647 69.777 C -158.497 68.297 -155.157 67.107 -152.487 65.957 C -149.817 64.807 -148.437 63.747 -148.437 63.747 L -148.437 60.787 C -148.437 60.787 -149.297 59.767 -149.817 57.857 C -149.817 57.857 -151.087 57.857 -151.367 55.387 C -151.567 53.637 -150.507 53.377 -150.507 53.377 C -150.507 53.377 -150.867 50.817 -150.937 49.747 C -151.007 48.667 -150.447 46.287 -147.517 46.047 C -147.517 46.047 -146.267 44.787 -145.047 44.517 C -145.047 44.517 -145.577 44.977 -145.407 45.337 C -145.407 45.337 -144.057 44.187 -141.617 45.007 C -141.617 45.007 -141.847 44.907 -142.437 45.337 C -142.437 45.337 -141.417 45.137 -140.127 45.817 C -138.847 46.497 -138.547 46.297 -138.547 46.297 L -139.107 46.657 C -139.107 46.657 -137.097 47.447 -137.067 49.227 C -137.037 51.007 -137.507 53.377 -137.507 53.377 C -137.507 53.377 -136.447 53.647 -136.647 55.387 C -136.927 57.867 -138.197 57.857 -138.197 57.857 C -138.727 59.767 -139.577 60.787 -139.577 60.787 L -139.577 63.747 C -139.577 63.747 -138.197 64.797 -135.527 65.957 C -132.857 67.107 -129.517 68.297 -128.367 69.777 C -127.217 71.257 -127.717 72.527 -127.717 72.527" style="fill: rgb(189, 170, 141); stroke-width: 0px;" transform="matrix(1, 0, 0, 1, 0, 2.842170943040401e-14)"/>
  <polyline class="cls-5" points="-131.417 14.677 -131.417 0.317 -108.727 0.317 -108.727 9.037" style="fill: none; stroke: rgb(150, 139, 131); stroke-miterlimit: 10; stroke-width: 1.8px;" transform="matrix(1, 0, 0, 1, 0, 2.842170943040401e-14)"/>
  <polyline class="cls-5" points="-156.707 34.307 -156.707 14.677 -131.417 14.677" style="fill: none; stroke: rgb(150, 139, 131); stroke-miterlimit: 10; stroke-width: 1.8px;" transform="matrix(1, 0, 0, 1, 0, 2.842170943040401e-14)"/>
  <line class="cls-5" x1="-131.417" y1="12.477" x2="-131.417" y2="33.467" style="fill: none; stroke: rgb(150, 139, 131); stroke-miterlimit: 10; stroke-width: 1.8px;" transform="matrix(1, 0, 0, 1, 0, 2.842170943040401e-14)"/>
  <line class="cls-5" x1="-108.727" y1="7.897" x2="-108.727" y2="29.927" style="fill: none; stroke: rgb(150, 139, 131); stroke-miterlimit: 10; stroke-width: 1.8px;" transform="matrix(1, 0, 0, 1, 0, 2.842170943040401e-14)"/>
  <g transform="matrix(1, 0, 0, 1, -210.59691170747445, -43.48288410131458)">
    <g>
      <line class="cls-5" x1="86.76" y1="49.1" x2="86.76" y2="53.33" style="fill: none; stroke: rgb(150, 139, 131); stroke-miterlimit: 10; stroke-width: 1.8px;"/>
      <line class="cls-5" x1="93.97" y1="49.1" x2="93.97" y2="53.33" style="fill: none; stroke: rgb(150, 139, 131); stroke-miterlimit: 10; stroke-width: 1.8px;"/>
    </g>
    <line class="cls-5" x1="86.76" y1="56.22" x2="86.76" y2="60.44" style="fill: none; stroke: rgb(150, 139, 131); stroke-miterlimit: 10; stroke-width: 1.8px;"/>
    <line class="cls-5" x1="93.97" y1="56.22" x2="93.97" y2="60.44" style="fill: none; stroke: rgb(150, 139, 131); stroke-miterlimit: 10; stroke-width: 1.8px;"/>
    <line class="cls-5" x1="86.76" y1="63.34" x2="86.76" y2="67.57" style="fill: none; stroke: rgb(150, 139, 131); stroke-miterlimit: 10; stroke-width: 1.8px;"/>
    <line class="cls-5" x1="93.97" y1="63.34" x2="93.97" y2="67.57" style="fill: none; stroke: rgb(150, 139, 131); stroke-miterlimit: 10; stroke-width: 1.8px;"/>
  </g>
  <g transform="matrix(1, 0, 0, 1, -210.59691170747445, -43.48288410131458)">
    <line class="cls-5" x1="59.91" y1="63.34" x2="59.91" y2="67.56" style="fill: none; stroke: rgb(150, 139, 131); stroke-miterlimit: 10; stroke-width: 1.8px;"/>
    <line class="cls-5" x1="66.6" y1="63.34" x2="66.6" y2="67.56" style="fill: none; stroke: rgb(150, 139, 131); stroke-miterlimit: 10; stroke-width: 1.8px;"/>
  </g>
  <line class="cls-5" x1="-137.247" y1="19.857" x2="-137.247" y2="24.077" style="fill: none; stroke: rgb(150, 139, 131); stroke-miterlimit: 10; stroke-width: 1.8px;" transform="matrix(1, 0, 0, 1, 0, 2.842170943040401e-14)"/>
  <text class="cls-1" style="white-space: pre; fill: rgb(100, 8, 17); font-size: 29.16px; letter-spacing: 2.6244px; line-height: 46.656px; perspective-origin: 76.8px 13.2px;" x="-58.597" y="40.197" transform="matrix(1, 0, 0, 1, 0, 2.842170943040401e-14)"><tspan class="cls-9" style="font-family: AvenirNext-Medium, 'Avenir Next'; font-size: 29.2px; word-spacing: 0px; letter-spacing: 2.62px;"><tspan x="-58.597" y="40.197" style="font-size: 29.2px; word-spacing: 0px; letter-spacing: 2.62px;">GLOBAL</tspan></tspan><tspan class="cls-10" style="font-family: AvenirNext-Bold, 'AvenirNext Bold'; font-weight: 700; font-size: 29.2px; word-spacing: 0px; letter-spacing: 2.62px;"><tspan x="-58.597" y="73.197" style="font-size: 29.2px; word-spacing: 0px; letter-spacing: 2.62px;">SHELTER CLUSTER</tspan></tspan></text>
  <line class="cls-4" x1="-159.177" y1="35.487" x2="-159.177" y2="45.857" style="fill: none; stroke: rgb(100, 8, 17); stroke-miterlimit: 10; stroke-width: 3px;" transform="matrix(1, 0, 0, 1, 0, 2.842170943040401e-14)"/>
  <polyline class="cls-4" points="-132.217 33.167 -143.917 27.837 -165.197 38.507" style="fill: none; stroke: rgb(100, 8, 17); stroke-miterlimit: 10; stroke-width: 3px;" transform="matrix(1, 0, 0, 1, 0, 2.842170943040401e-14)"/>
  <line class="cls-4" x1="-80.757" y1="30.187" x2="-80.757" y2="45.647" style="fill: none; stroke: rgb(100, 8, 17); stroke-miterlimit: 10; stroke-width: 3px;" transform="matrix(1, 0, 0, 1, 0, 2.842170943040401e-14)"/>
  <polyline class="cls-4" points="-75.497 32.347 -96.087 23.097 -113.587 30.927" style="fill: none; stroke: rgb(100, 8, 17); stroke-miterlimit: 10; stroke-width: 3px;" transform="matrix(1, 0, 0, 1, 0, 2.842170943040401e-14)"/>
  <polyline class="cls-4" points="-163.557 47.697 -120.137 27.567 -76.987 47.777" style="fill: none; stroke: rgb(100, 8, 17); stroke-miterlimit: 10; stroke-width: 3px;" transform="matrix(1, 0, 0, 1, 0, 2.842170943040401e-14)"/>
  <text class="cls-3" transform="matrix(0.9200000166893006, 0, 0, 1, -159.7569146120088, 99.15712122853282)" style="white-space: pre; fill: rgb(100, 8, 17); font-family: Calibri, Calibri; font-size: 20.24px; line-height: 32.384px; perspective-origin: 139.875px 0px;"><tspan x="0" y="0">Coordinating Humanitarian Shelter and Settlements</tspan></text>
  <g transform="matrix(1, 0, 0, 1, -210.59691170747445, -43.48288410131458)">
    <path class="cls-2" d="M100.87,105.8c-1.65-7.56-2.34-16.84-2.34-16.84-.6-5.56-3.58-8.8-8.32-8.8s-7.72,3.24-8.32,8.8c0,0-.7,9.28-2.34,16.84" style="fill: rgb(100, 8, 17); stroke-width: 0px;"/>
    <g>
      <path class="cls-8" d="M89.53,111.8c2.31.83,7.21-7.19,5.68-7.79-2.12-.83-1.03-6.78-1.03-6.78h-7.76s.97,6.34-1.2,6.86c-1.61.39,3.53,8.54,5.84,7.71" style="fill: rgb(255, 255, 255); stroke-width: 0px;"/>
      <g>
        <path class="cls-2" d="M94.2,90.39c0,1.68.88,3.04,1.97,3.04.46,0,1.97-1.36,1.97-3.04s-.88-3.05-1.97-3.05-1.97,1.37-1.97,3.05Z" style="fill: rgb(100, 8, 17); stroke-width: 0px;"/>
        <path class="cls-2" d="M86.26,90.39c0,1.68-.88,3.04-1.97,3.04-.46,0-1.97-1.36-1.97-3.04s.88-3.05,1.97-3.05,1.97,1.37,1.97,3.05Z" style="fill: rgb(100, 8, 17); stroke-width: 0px;"/>
        <path class="cls-8" d="M96.64,90.31c-.37-3.63-2.24-6.67-6.33-6.69h0s-.01,0-.02,0-.01,0-.02,0h0c-4.09.02-5.95,3.07-6.33,6.69-.15,1.43-.08,2.91.08,4.41.13,1.21.75,2.39,1.8,3.72,1.86,2.35,3.34,2.87,4.45,2.88h0s.01,0,.02,0c0,0,.01,0,.02,0h0c1.11-.01,2.59-.53,4.45-2.88,1.05-1.33,1.67-2.5,1.8-3.72.16-1.51.23-2.98.08-4.41Z" style="fill: rgb(255, 255, 255); stroke-width: 0px;"/>
      </g>
    </g>
    <path class="cls-2" d="M94.7,101.55c.9.44,2.54,2.56,5.38,3.05,5.1.87,5.91,5.15,5.91,5.15l.36,6.27h-32.1l.36-6.27s.81-4.29,5.91-5.15c2.68-.46,4.29-2.54,5.21-2.97,0,0,.55,3.77,4.59,3.77s4.38-3.85,4.38-3.85Z" style="fill: rgb(100, 8, 17); stroke-width: 0px;"/>
  </g>
  <path class="cls-2" d="M -128.767 52.757 C -128.767 52.757 -128.427 47.107 -124.407 45.647 C -122.147 44.827 -117.267 43.997 -116.567 41.927 C -116.167 40.747 -116.087 40.807 -116.157 39.827 C -116.267 38.077 -124.217 37.547 -126.357 40.887 C -128.497 44.227 -128.767 52.757 -128.767 52.757 L -128.767 52.757 Z" style="fill: rgb(100, 8, 17); stroke-width: 0px;" transform="matrix(1, 0, 0, 1, 0, 2.842170943040401e-14)"/>
  <path class="cls-2" d="M -118.307 41.207 C -118.337 41.387 -117.687 43.057 -116.407 44.427 C -115.137 45.797 -113.937 46.807 -113.767 49.947 C -113.587 53.087 -113.247 52.527 -113.247 52.527 C -113.247 52.527 -112.697 42.167 -115.587 40.217 C -118.477 38.267 -118.127 40.007 -118.307 41.197 L -118.307 41.207 Z" style="fill: rgb(100, 8, 17); stroke-width: 0px;" transform="matrix(1, 0, 0, 1, 0, 2.842170943040401e-14)"/>
</svg>