<?xml version="1.0" encoding="utf-8"?>
<svg viewBox="319.3542 184.2543 56.6935 56.692" xmlns="http://www.w3.org/2000/svg">
  <path d="M -61.308 -15.689 L -60.76 -15.689 C -60.249 -15.689 -59.865 -15.79 -59.611 -15.993 C -59.357 -16.195 -59.23 -16.49 -59.23 -16.876 C -59.23 -17.266 -59.337 -17.554 -59.549 -17.741 C -59.763 -17.927 -60.096 -18.021 -60.551 -18.021 L -61.308 -18.021 L -61.308 -15.689 Z M -57.548 -16.935 C -57.548 -16.09 -57.813 -15.444 -58.341 -14.997 C -58.869 -14.548 -59.62 -14.325 -60.594 -14.325 L -61.308 -14.325 L -61.308 -11.532 L -62.973 -11.532 L -62.973 -19.384 L -60.465 -19.384 C -59.513 -19.384 -58.789 -19.18 -58.293 -18.769 C -57.797 -18.359 -57.548 -17.748 -57.548 -16.935 Z M -67.085 -11.532 L -68.723 -11.532 L -68.723 -19.384 L -64.222 -19.384 L -64.222 -18.021 L -67.085 -18.021 L -67.085 -15.995 L -64.421 -15.995 L -64.421 -14.636 L -67.085 -14.636 L -67.085 -11.532 Z M -71.61 -11.532 L -73.506 -11.532 L -74.569 -15.657 C -74.609 -15.804 -74.676 -16.107 -74.771 -16.567 C -74.839 -16.874 -74.894 -17.183 -74.935 -17.494 C -74.956 -17.3 -75.01 -16.989 -75.095 -16.562 C -75.182 -16.134 -75.248 -15.828 -75.294 -15.646 L -76.353 -11.532 L -78.243 -11.532 L -80.247 -19.384 L -78.608 -19.384 L -77.604 -15.099 C -77.428 -14.307 -77.302 -13.621 -77.223 -13.041 C -77.201 -13.245 -77.152 -13.561 -77.075 -13.989 C -76.998 -14.418 -76.925 -14.75 -76.857 -14.985 L -75.713 -19.384 L -74.14 -19.384 L -72.996 -14.985 C -72.848 -14.343 -72.728 -13.694 -72.636 -13.041 C -72.6 -13.321 -72.543 -13.669 -72.464 -14.086 C -72.385 -14.503 -72.314 -14.84 -72.249 -15.099 L -71.25 -19.384 L -69.612 -19.384 L -71.61 -11.532 Z M -75.683 15.781 C -78.734 15.781 -80.692 16.505 -81.227 16.73 C -81.258 16.744 -81.284 16.699 -81.259 16.674 C -77.907 13.189 -73.982 13.381 -73.037 13.381 L -61.876 13.381 C -61.313 13.381 -60.857 13.918 -60.857 14.582 C -60.857 15.244 -61.313 15.781 -61.876 15.781 L -75.683 15.781 Z M -73.168 18.866 C -76.456 18.866 -77.414 16.998 -82.39 18.231 C -82.424 18.24 -82.447 18.193 -82.418 18.173 C -79.644 16.27 -76.627 16.443 -75.407 16.443 L -61.876 16.443 C -61.313 16.443 -60.857 16.98 -60.857 17.642 C -60.857 18.304 -61.313 18.841 -61.876 18.841 C -61.876 18.841 -70.565 18.866 -73.168 18.866 Z M -72.935 21.903 C -76.309 21.903 -76.579 19.413 -81.581 18.852 C -81.616 18.848 -81.62 18.796 -81.586 18.788 C -77.477 17.76 -75.948 19.503 -73.549 19.503 L -61.876 19.503 C -61.313 19.503 -60.857 20.04 -60.857 20.703 C -60.857 21.366 -61.313 21.903 -61.876 21.903 L -72.935 21.903 Z M -73.667 12.72 C -76.383 12.72 -78.635 13.905 -79.162 14.204 C -79.192 14.22 -79.221 14.185 -79.202 14.158 C -78.761 13.509 -76.382 10.321 -72.292 10.321 L -61.876 10.321 C -61.313 10.321 -60.857 10.858 -60.857 11.521 C -60.857 12.183 -61.313 12.72 -61.876 12.72 L -73.667 12.72 Z M -58.726 6.095 C -58.847 5.979 -59.003 5.907 -59.17 5.89 C -59.292 5.874 -59.416 5.888 -59.532 5.933 C -59.485 5.834 -59.445 5.728 -59.43 5.603 C -59.403 5.427 -59.432 5.248 -59.513 5.091 C -59.849 4.355 -58.889 2.882 -59.01 2.816 C -59.125 2.752 -59.671 4.376 -60.201 5.032 C -60.313 5.172 -60.382 5.342 -60.401 5.521 C -60.421 5.696 -60.391 5.875 -60.314 6.034 C -60.24 6.166 -60.128 6.26 -59.996 6.268 C -59.96 6.272 -59.924 6.27 -59.889 6.262 C -59.897 6.281 -59.903 6.3 -59.907 6.321 C -59.924 6.465 -59.872 6.61 -59.765 6.709 C -59.646 6.827 -59.49 6.9 -59.324 6.916 C -59.153 6.941 -58.98 6.908 -58.831 6.823 C -58.112 6.43 -56.621 6.042 -56.653 5.904 C -56.682 5.766 -58.136 6.619 -58.726 6.095 Z M -57.627 5.021 C -57.733 4.906 -57.877 4.835 -58.033 4.822 C -58.124 4.817 -58.215 4.832 -58.301 4.865 C -58.288 4.819 -58.27 4.78 -58.264 4.734 C -58.245 4.572 -58.282 4.41 -58.367 4.272 C -58.732 3.595 -57.779 2.316 -57.902 2.253 C -58.025 2.189 -58.548 3.621 -59.078 4.187 C -59.191 4.301 -59.261 4.451 -59.275 4.612 C -59.292 4.773 -59.256 4.936 -59.175 5.077 C -59.091 5.2 -58.976 5.287 -58.837 5.306 C -58.776 5.309 -58.716 5.302 -58.658 5.285 C -58.661 5.292 -58.669 5.303 -58.666 5.311 C -58.677 5.457 -58.627 5.601 -58.527 5.709 C -58.427 5.816 -58.283 5.89 -58.123 5.904 C -57.969 5.92 -57.814 5.878 -57.69 5.787 C -57.07 5.34 -55.653 5.075 -55.69 4.931 C -55.724 4.793 -57.081 5.542 -57.627 5.021 Z M -56.663 4.028 C -56.775 3.945 -56.913 3.908 -57.052 3.924 C -57.12 3.928 -57.187 3.945 -57.249 3.975 C -57.238 3.945 -57.22 3.921 -57.209 3.892 C -57.171 3.749 -57.18 3.599 -57.233 3.462 C -57.464 2.797 -56.441 1.814 -56.54 1.734 C -56.64 1.66 -57.304 2.851 -57.85 3.27 C -57.964 3.358 -58.045 3.483 -58.081 3.624 C -58.122 3.765 -58.115 3.915 -58.06 4.052 C -58.013 4.171 -57.916 4.265 -57.795 4.307 C -57.703 4.336 -57.611 4.317 -57.524 4.28 C -57.544 4.334 -57.552 4.392 -57.548 4.45 C -57.535 4.586 -57.469 4.7 -57.361 4.78 C -57.129 4.952 -56.806 4.923 -56.609 4.713 C -56.118 4.216 -54.895 3.751 -54.944 3.632 C -54.997 3.512 -56.096 4.397 -56.663 4.028 Z M -54.769 1.894 C -54.871 1.743 -55.727 2.681 -56.359 2.771 C -56.494 2.791 -56.619 2.854 -56.718 2.949 C -56.828 3.043 -56.905 3.169 -56.939 3.31 C -56.97 3.42 -56.95 3.54 -56.884 3.634 C -56.81 3.72 -56.696 3.761 -56.585 3.743 C -56.446 3.724 -56.318 3.66 -56.22 3.562 C -56.115 3.466 -56.04 3.343 -56.005 3.206 C -55.813 2.563 -54.693 1.992 -54.769 1.894 Z M -72.463 3.164 C -72.488 3.257 -72.673 3.98 -72.673 3.98 C -72.725 4.009 -72.945 3.961 -73.003 3.956 C -73.425 3.916 -73.803 3.549 -73.641 3.111 C -73.508 2.753 -73.237 2.715 -72.893 2.699 C -72.75 2.693 -72.493 2.727 -72.364 2.816 C -72.364 2.816 -72.415 2.981 -72.463 3.164 Z M -72.948 5.346 L -72.987 5.593 C -73.25 5.428 -73.404 5.051 -73.278 4.753 C -73.181 4.527 -72.941 4.468 -72.764 4.458 C -72.828 4.753 -72.889 5.049 -72.948 5.346 Z M -73.326 8.042 C -73.359 8.227 -73.609 8.252 -73.78 8.303 C -74.276 8.452 -74.746 8.388 -74.898 7.795 C -75.063 7.161 -74.583 6.894 -74.068 6.77 C -73.788 6.704 -73.528 6.759 -73.336 6.996 C -73.288 7.055 -73.231 7.108 -73.218 7.164 C -73.218 7.164 -73.295 7.868 -73.326 8.042 Z M -74.887 4.92 C -74.504 4.828 -74.108 4.684 -73.814 5.061 C -73.504 5.457 -73.607 6.092 -74.105 6.26 C -74.433 6.371 -74.83 6.467 -75.11 6.199 C -75.478 5.848 -75.451 5.051 -74.887 4.92 Z M -75.262 2.864 C -74.859 2.766 -74.441 2.617 -74.131 3.013 C -73.809 3.427 -73.916 4.097 -74.439 4.272 C -74.785 4.386 -75.202 4.487 -75.496 4.205 C -75.882 3.839 -75.853 3.002 -75.262 2.864 Z M -75.638 7.309 C -75.743 7.679 -76.048 7.734 -76.367 7.811 C -76.577 7.554 -77.141 6.902 -77.151 6.825 C -77.153 6.794 -77.149 6.763 -77.139 6.735 C -77.113 6.658 -77.024 6.584 -76.958 6.541 C -76.766 6.416 -76.357 6.324 -76.136 6.369 C -75.74 6.454 -75.533 6.937 -75.638 7.309 Z M -77.643 5.41 C -77.932 4.386 -76.215 3.94 -75.95 4.944 C -75.677 5.976 -77.409 6.414 -77.643 5.41 Z M -77.895 3.366 C -78.189 2.349 -76.464 1.902 -76.199 2.901 C -75.926 3.934 -77.661 4.373 -77.895 3.366 Z M -78.136 1.357 C -78.417 0.409 -76.798 -0.011 -76.551 0.924 C -76.297 1.886 -77.916 2.301 -78.136 1.357 Z M -78.302 5.224 C -78.381 5.271 -78.411 5.296 -78.438 5.296 L -79.208 4.458 C -79.199 4.434 -78.961 4.262 -78.881 4.216 C -78.241 3.86 -77.714 4.878 -78.302 5.224 Z M -79.763 3.337 C -80.144 2.497 -78.758 1.586 -78.338 2.492 C -77.953 3.326 -79.339 4.253 -79.763 3.337 Z M -78.598 0.677 C -78.16 1.456 -79.48 2.325 -79.858 1.487 C -80.194 0.765 -79.021 -0.078 -78.598 0.677 Z M -79.706 -1.138 C -79.511 -1.31 -79.286 -1.403 -79.055 -1.292 C -78.685 -1.114 -78.674 -0.559 -78.997 -0.338 C -79.144 -0.237 -79.393 -0.112 -79.574 -0.157 C -79.971 -0.258 -80.047 -0.837 -79.706 -1.138 Z M -79.656 -2.807 C -79.496 -2.915 -79.283 -3.012 -79.099 -2.937 C -78.765 -2.8 -78.777 -2.315 -79.047 -2.121 C -79.171 -2.033 -79.393 -1.924 -79.543 -1.964 C -79.881 -2.049 -79.964 -2.598 -79.656 -2.807 Z M -78.769 -5.185 C -78.57 -5.292 -78.283 -5.337 -78.105 -5.137 C -77.895 -4.909 -77.962 -4.543 -78.239 -4.403 C -78.451 -4.297 -78.737 -4.257 -78.905 -4.454 C -79.101 -4.686 -79.035 -5.04 -78.769 -5.185 Z M -78.926 -3.378 C -79.087 -3.973 -78.084 -4.254 -77.921 -3.649 C -77.74 -3.062 -78.766 -2.769 -78.926 -3.378 Z M -77.31 -2.339 C -77.076 -1.696 -78.165 -1.332 -78.378 -1.967 C -78.595 -2.61 -77.501 -2.977 -77.31 -2.339 Z M -77.173 -5.472 C -76.965 -5.555 -76.699 -5.645 -76.467 -5.472 C -76.178 -5.256 -76.241 -4.77 -76.572 -4.619 C -76.79 -4.52 -77.068 -4.454 -77.262 -4.627 C -77.509 -4.847 -77.523 -5.332 -77.173 -5.472 Z M -77.365 -0.091 C -77.659 -0.022 -77.966 0.095 -78.21 -0.157 C -78.522 -0.479 -78.433 -1.042 -78.01 -1.196 C -77.737 -1.3 -77.391 -1.358 -77.168 -1.13 C -76.882 -0.837 -76.913 -0.2 -77.365 -0.091 Z M -77.36 -3.375 C -77.548 -4.013 -76.509 -4.34 -76.31 -3.721 C -76.105 -3.086 -77.181 -2.748 -77.36 -3.375 Z M -75.62 -2.206 C -75.376 -1.478 -76.606 -1.09 -76.832 -1.807 C -77.06 -2.541 -75.821 -2.929 -75.62 -2.206 Z M -75.554 -4.156 C -75.337 -4.214 -75.108 -4.193 -74.943 -4.016 C -74.691 -3.745 -74.777 -3.282 -75.15 -3.213 C -75.325 -3.181 -75.596 -3.194 -75.733 -3.314 C -75.979 -3.532 -75.967 -4.045 -75.554 -4.156 Z M -74.504 -2.628 C -74.108 -2.628 -73.908 -2.046 -74.139 -1.757 C -74.278 -1.582 -74.578 -1.571 -74.782 -1.603 C -75.16 -1.661 -75.402 -2.148 -75.147 -2.477 C -74.992 -2.676 -74.727 -2.628 -74.504 -2.628 Z M -76.407 -0.232 C -76.651 -1.069 -75.229 -1.443 -75.011 -0.612 C -74.79 0.233 -76.22 0.605 -76.407 -0.232 Z M -75.535 0.839 C -75.147 0.799 -74.743 0.709 -74.504 1.116 C -74.255 1.546 -74.441 2.144 -74.945 2.245 C -75.276 2.314 -75.677 2.346 -75.913 2.053 C -76.223 1.666 -76.1 0.892 -75.535 0.839 Z M -73.561 -1.025 C -73.081 -0.827 -72.919 -0.261 -73.257 0.055 C -73.439 0.22 -73.769 0.188 -73.992 0.143 C -74.439 0.055 -74.73 -0.615 -74.339 -0.933 C -74.138 -1.096 -73.779 -1.116 -73.561 -1.025 Z M -72.806 0.993 C -72.505 1.363 -72.617 2.016 -73.145 2.048 C -73.42 2.064 -73.78 2.032 -73.966 1.806 C -74.265 1.445 -74.152 0.767 -73.625 0.749 C -73.349 0.738 -72.992 0.767 -72.806 0.993 Z M -70.767 -5.671 C -70.795 -5.716 -70.85 -5.736 -70.901 -5.721 C -70.964 -5.7 -71.006 -5.631 -70.982 -5.57 C -69.777 -2.333 -71.316 -0.739 -71.959 1.527 C -72.73 -0.314 -70.174 -2.046 -71.491 -5.402 C -71.51 -5.445 -71.544 -5.48 -71.591 -5.487 C -71.657 -5.496 -71.72 -5.469 -71.73 -5.381 C -71.764 -5.145 -71.919 -3.285 -73.428 -2.195 C -73.589 -2.581 -73.828 -2.928 -74.131 -3.216 C -74.271 -3.843 -74.68 -4.704 -75.541 -4.958 C -75.67 -5.283 -75.929 -5.748 -76.428 -5.998 C -76.898 -6.232 -77.441 -6.211 -78.045 -5.937 C -78.774 -5.852 -79.276 -5.567 -79.54 -5.092 C -79.79 -4.643 -79.745 -4.154 -79.661 -3.821 C -80.275 -3.165 -80.304 -2.193 -80.288 -1.812 C -80.653 -0.936 -80.448 0.087 -80.333 0.512 C -80.769 1.703 -80.343 2.858 -80.173 3.241 C -80.173 3.345 -80.168 3.443 -80.162 3.541 C -81.59 1.979 -84.839 0.044 -86.08 -0.694 C -86.138 -0.73 -86.212 -0.721 -86.261 -0.673 C -86.323 -0.615 -86.327 -0.518 -86.269 -0.455 C -83.501 2.245 -81.031 5.577 -78.659 12.491 C -77.475 11.26 -75.336 9.642 -72.292 9.642 L -68.731 9.642 C -70.993 1.214 -67.699 -1.802 -70.767 -5.671 Z M -53.931 -1.313 C -54.582 -1.483 -58.739 -2.219 -63.398 6.35 C -62.718 3.159 -60.652 -0.702 -60.086 -1.823 L -60.086 -1.831 C -60.051 -1.897 -60.069 -1.978 -60.128 -2.023 C -60.189 -2.066 -60.274 -2.05 -60.317 -1.988 C -63.395 3.145 -64.476 6.103 -65.114 9.642 L -63.185 9.642 C -62.857 6.23 -58.548 -1.807 -53.955 -1.21 L -53.95 -1.21 C -53.923 -1.204 -53.9 -1.226 -53.897 -1.249 C -53.887 -1.279 -53.905 -1.308 -53.931 -1.313 Z M -63.193 26.919 L -64.235 22.564 L -66.009 22.564 C -65.728 23.669 -65.327 24.793 -64.807 25.779 C -64.775 25.837 -64.712 25.87 -64.647 25.862 C -64.557 25.846 -64.497 25.761 -64.513 25.672 C -64.634 24.75 -64.778 23.861 -64.915 22.973 C -64.539 24.368 -64.033 25.731 -63.35 26.986 C -63.332 27.025 -63.293 27.043 -63.256 27.031 C -63.206 27.02 -63.18 26.967 -63.193 26.919 Z M -61.4 24.942 C -61.582 24.214 -61.771 23.321 -61.933 22.564 L -62.608 22.564 C -62.345 23.372 -61.991 24.273 -61.676 25.043 C -61.645 25.118 -61.574 25.155 -61.506 25.136 C -61.424 25.11 -61.377 25.024 -61.4 24.942 Z M -61.175 27.503 L -61.18 27.493 C -61.398 26.884 -61.7 26.339 -61.939 25.755 C -62.198 25.178 -62.433 24.591 -62.645 23.996 C -62.815 23.547 -62.996 23.032 -63.135 22.564 L -63.786 22.564 C -63.602 23.109 -63.363 23.696 -63.14 24.222 C -62.65 25.41 -62.083 26.574 -61.361 27.615 C -61.333 27.653 -61.282 27.668 -61.238 27.65 C -61.18 27.628 -61.154 27.562 -61.175 27.503 Z M -60.201 6.603 C -60.251 6.528 -60.372 6.512 -60.429 6.573 C -61.285 7.489 -62.008 8.523 -62.576 9.642 L -61.873 9.642 C -61.521 8.816 -60.729 7.357 -60.219 6.831 L -60.214 6.826 C -60.159 6.763 -60.154 6.671 -60.201 6.603 Z M -65.555 0.558 C -64.904 -0.511 -63.938 -1.329 -63.119 -2.317 C -63.089 -2.356 -63.093 -2.411 -63.128 -2.445 C -63.158 -2.48 -63.212 -2.481 -63.245 -2.448 C -63.432 -2.249 -63.626 -2.062 -63.825 -1.877 C -63.912 -1.919 -64.132 -1.834 -64.356 -1.659 C -64.531 -1.52 -64.657 -1.366 -64.702 -1.255 C -64.815 -1.281 -65.027 -1.149 -65.219 -0.904 C -65.377 -0.699 -65.468 -0.484 -65.466 -0.351 C -65.587 -0.341 -65.762 -0.187 -65.912 0.058 C -66.009 0.22 -66.072 0.377 -66.093 0.507 C -66.217 0.603 -66.322 0.723 -66.402 0.86 C -66.536 1.084 -66.605 1.309 -66.584 1.439 C -66.615 1.496 -66.647 1.549 -66.673 1.604 L -66.657 1.472 C -66.465 -0.041 -66.188 -1.539 -65.765 -2.984 C -65.34 -4.425 -64.831 -5.878 -63.957 -7.045 L -63.951 -7.05 C -63.906 -7.115 -63.913 -7.203 -63.967 -7.26 C -64.021 -7.322 -64.116 -7.323 -64.172 -7.263 C -64.467 -6.94 -64.73 -6.588 -64.957 -6.213 C -65.056 -6.266 -65.266 -6.069 -65.426 -5.761 C -65.573 -5.483 -65.626 -5.225 -65.57 -5.126 C -65.57 -5.126 -65.573 -5.118 -65.579 -5.121 C -65.684 -5.166 -65.878 -4.932 -65.996 -4.619 C -66.111 -4.324 -66.132 -4.053 -66.053 -3.962 C -66.059 -3.957 -66.059 -3.954 -66.062 -3.949 C -66.179 -3.992 -66.371 -3.723 -66.489 -3.343 C -66.587 -3.022 -66.597 -2.743 -66.526 -2.631 C -66.521 -2.626 -66.526 -2.612 -66.531 -2.615 C -66.652 -2.658 -66.836 -2.381 -66.943 -2.004 C -67.051 -1.64 -67.043 -1.318 -66.941 -1.255 C -67.059 -1.268 -67.224 -0.992 -67.311 -0.617 C -67.389 -0.293 -67.381 -0.014 -67.305 0.098 C -67.421 0.132 -67.549 0.403 -67.615 0.754 C -67.678 1.097 -67.647 1.381 -67.563 1.472 C -67.67 1.527 -67.78 1.806 -67.82 2.152 C -67.859 2.495 -67.809 2.776 -67.72 2.867 C -67.809 2.967 -67.896 3.206 -67.933 3.494 C -67.969 3.767 -67.946 4.004 -67.893 4.137 C -67.99 4.219 -68.064 4.496 -68.067 4.828 C -68.074 5.093 -68.035 5.319 -67.967 5.449 C -68.028 5.623 -68.058 5.806 -68.056 5.991 C -68.061 6.27 -68.017 6.509 -67.946 6.634 C -67.967 7.615 -67.954 8.659 -67.901 9.642 L -65.783 9.642 C -65.768 8.877 -65.717 8.042 -65.642 7.285 C -65.492 5.935 -65.269 4.564 -64.594 3.411 L -64.589 3.403 C -64.567 3.362 -64.572 3.311 -64.602 3.276 C -64.642 3.241 -64.697 3.241 -64.734 3.284 C -65.65 4.347 -66.051 5.79 -66.287 7.174 C -66.329 7.445 -66.363 7.718 -66.395 7.99 C -66.337 6.879 -66.235 5.773 -65.98 4.721 C -65.689 3.44 -65.106 2.221 -63.996 1.538 C -63.959 1.514 -63.943 1.467 -63.957 1.426 C -63.969 1.377 -64.018 1.348 -64.067 1.36 C -64.138 1.381 -64.203 1.418 -64.272 1.448 C -64.345 1.357 -64.615 1.424 -64.894 1.601 C -65.159 1.774 -65.335 1.987 -65.316 2.104 C -65.316 2.109 -65.329 2.117 -65.329 2.106 C -65.33 2.093 -65.335 2.082 -65.342 2.072 C -65.442 1.99 -65.71 2.176 -65.936 2.492 C -66.164 2.808 -66.253 3.138 -66.156 3.223 C -66.151 3.225 -66.153 3.233 -66.158 3.233 C -66.277 3.185 -66.473 3.454 -66.597 3.829 C -66.686 4.091 -66.707 4.333 -66.675 4.472 C -66.675 4.476 -66.681 4.482 -66.681 4.482 C -66.773 4.785 -66.849 5.091 -66.92 5.401 C -66.893 4.963 -66.854 4.522 -66.791 4.086 C -66.605 2.832 -66.227 1.604 -65.555 0.558 Z M -58.892 -2.94 C -59.045 -3.006 -59.215 -3.019 -59.377 -2.977 C -59.497 -2.946 -59.608 -2.888 -59.703 -2.807 C -59.687 -2.922 -59.693 -3.04 -59.721 -3.152 C -59.755 -3.325 -59.844 -3.482 -59.973 -3.601 C -60.545 -4.172 -60.152 -5.892 -60.285 -5.913 C -60.416 -5.931 -60.369 -4.217 -60.639 -3.415 C -60.697 -3.245 -60.703 -3.061 -60.658 -2.886 C -60.618 -2.713 -60.527 -2.556 -60.398 -2.435 C -60.285 -2.336 -60.149 -2.291 -60.02 -2.331 C -59.984 -2.337 -59.951 -2.352 -59.923 -2.374 C -59.923 -2.352 -59.923 -2.331 -59.921 -2.31 C -59.891 -2.169 -59.792 -2.06 -59.655 -1.996 C -59.501 -1.928 -59.329 -1.915 -59.167 -1.959 C -59 -1.997 -58.849 -2.089 -58.739 -2.219 C -58.201 -2.844 -56.936 -3.734 -57.012 -3.853 C -57.089 -3.97 -58.157 -2.658 -58.892 -2.94 Z M -56.445 -5.105 C -56.527 -5.222 -57.54 -4.04 -58.23 -4.335 C -58.37 -4.404 -58.531 -4.419 -58.682 -4.377 C -58.768 -4.349 -58.848 -4.304 -58.918 -4.244 C -58.921 -4.292 -58.918 -4.335 -58.928 -4.377 C -58.964 -4.535 -59.054 -4.676 -59.183 -4.775 C -59.76 -5.28 -59.306 -6.816 -59.443 -6.832 C -59.582 -6.848 -59.579 -5.32 -59.879 -4.603 C -59.945 -4.456 -59.958 -4.291 -59.915 -4.135 C -59.873 -3.965 -59.778 -3.824 -59.66 -3.734 C -59.549 -3.647 -59.405 -3.613 -59.267 -3.641 C -59.209 -3.659 -59.154 -3.686 -59.107 -3.723 C -59.107 -3.715 -59.11 -3.705 -59.107 -3.697 C -59.066 -3.556 -58.968 -3.437 -58.837 -3.37 C -58.697 -3.305 -58.538 -3.292 -58.39 -3.333 C -58.24 -3.372 -58.11 -3.465 -58.025 -3.593 C -57.598 -4.233 -56.364 -4.983 -56.445 -5.105 Z M -56.196 -6.585 C -56.286 -6.678 -57.012 -5.461 -57.671 -5.607 C -57.804 -5.645 -57.946 -5.63 -58.07 -5.567 C -58.133 -5.54 -58.19 -5.5 -58.238 -5.45 C -58.238 -5.48 -58.23 -5.509 -58.23 -5.541 C -58.242 -5.687 -58.302 -5.825 -58.401 -5.934 C -58.844 -6.476 -58.228 -7.759 -58.346 -7.799 C -58.466 -7.834 -58.676 -6.484 -59.044 -5.897 C -59.121 -5.775 -59.154 -5.629 -59.138 -5.485 C -59.128 -5.328 -59.062 -5.187 -58.97 -5.089 C -58.876 -4.991 -58.76 -4.937 -58.634 -4.945 C -58.54 -4.954 -58.453 -4.996 -58.39 -5.065 C -58.39 -5.012 -58.38 -4.954 -58.354 -4.898 C -58.299 -4.779 -58.194 -4.691 -58.068 -4.656 C -57.944 -4.616 -57.797 -4.627 -57.666 -4.691 C -57.54 -4.752 -57.439 -4.856 -57.382 -4.983 C -57.094 -5.623 -56.11 -6.492 -56.196 -6.585 Z M -56.632 -8.275 C -56.781 -8.381 -57.256 -7.199 -57.821 -6.891 C -57.94 -6.823 -58.036 -6.72 -58.096 -6.596 C -58.163 -6.469 -58.19 -6.324 -58.175 -6.181 C -58.162 -6.056 -58.104 -5.95 -58.012 -5.897 C -57.914 -5.843 -57.794 -5.843 -57.697 -5.899 C -57.574 -5.967 -57.476 -6.071 -57.417 -6.197 C -57.351 -6.324 -57.323 -6.467 -57.338 -6.609 C -57.38 -7.278 -56.527 -8.209 -56.632 -8.275 Z M -66.99 22.564 L -72.935 22.564 C -73.339 22.564 -73.704 22.532 -74.04 22.471 C -74.037 22.471 -74.037 22.473 -74.037 22.473 C -73.061 23.924 -71.531 25.025 -69.98 25.763 C -69.741 27.086 -69.442 28.311 -69.334 28.407 C -69.224 28.502 -67.702 28.064 -67.654 27.923 C -67.61 27.783 -68.277 25.516 -68.277 25.516 C -67.476 24.142 -67.229 23.331 -66.99 22.564 Z M -52.037 32.733 C -53.538 33.326 -55.496 33.375 -57.094 32.951 C -60.755 31.811 -64.82 29.651 -68.723 31.444 C -72.625 29.651 -76.69 31.811 -80.351 32.951 C -81.949 33.375 -83.907 33.326 -85.408 32.733 C -85.434 32.721 -85.464 32.742 -85.461 32.771 C -85.46 32.782 -85.454 32.792 -85.445 32.799 C -83.285 34.47 -80.259 35.239 -77.535 34.255 C -74.919 33.44 -72.706 30.668 -69.607 31.851 C -72.061 32.81 -74.355 34.58 -76.126 36.25 L -74.838 37.308 C -73.229 35.435 -71.418 33.562 -69.368 32.422 C -69.088 32.257 -68.92 32.191 -68.723 32.18 C -68.525 32.191 -68.358 32.257 -68.08 32.422 C -66.027 33.562 -64.216 35.435 -62.608 37.308 L -61.319 36.25 C -63.09 34.58 -65.384 32.81 -67.838 31.851 C -64.739 30.668 -62.526 33.44 -59.91 34.255 C -57.186 35.239 -54.16 34.47 -52 32.799 C -51.966 32.77 -51.995 32.717 -52.037 32.733 Z M -76.166 30.208 C -79.992 29.281 -81.039 25.694 -84.238 24.137 C -84.272 24.119 -84.309 24.159 -84.288 24.19 C -83.28 25.848 -82.734 28.388 -79.829 29.954 C -79.805 29.966 -79.818 30.004 -79.845 29.996 C -84.012 29.194 -85.763 30.309 -90.13 28.335 C -90.167 28.319 -90.206 28.359 -90.182 28.394 C -88.747 30.477 -85.341 31.901 -80.674 31.508 C -78.994 31.365 -77.777 30.658 -76.166 30.281 C -76.126 30.27 -76.126 30.216 -76.166 30.208 Z M -84.18 28.008 C -85.634 26.103 -85.22 22.036 -88.503 18.313 C -88.529 18.284 -88.576 18.307 -88.568 18.344 C -87.941 21.086 -88.128 24.201 -86.411 26.483 C -86.395 26.507 -86.419 26.531 -86.443 26.515 C -89.828 23.85 -93.308 23.047 -94.857 20.89 C -94.88 20.861 -94.927 20.876 -94.922 20.914 C -94.539 23.706 -89.175 28.059 -84.209 28.067 C -84.18 28.067 -84.162 28.033 -84.18 28.008 Z M -89.264 22.944 C -90.823 20.053 -88.96 15.642 -90.728 11.356 C -90.747 11.311 -90.815 11.322 -90.815 11.37 C -90.867 13.71 -92.321 17.205 -91.442 19.843 C -91.432 19.867 -91.463 19.88 -91.476 19.859 C -93.715 16.588 -95.491 15.905 -96.972 12.911 C -96.993 12.866 -97.061 12.878 -97.064 12.926 C -97.158 14.961 -96.258 16.62 -95.242 18.161 C -93.649 20.193 -91.624 21.844 -89.314 22.997 C -89.279 23.013 -89.248 22.978 -89.264 22.944 Z M -90.321 5.338 C -90.324 5.29 -90.387 5.274 -90.411 5.316 C -91.6 7.54 -93.717 9.31 -93.786 12.247 C -93.788 12.276 -93.82 12.278 -93.825 12.251 C -94.211 9.985 -96.134 7.445 -96.218 4.163 C -96.218 4.113 -96.289 4.1 -96.308 4.147 C -97.89 8.415 -95.615 12.461 -93.193 15.804 C -93.166 15.838 -93.114 15.818 -93.114 15.772 C -93.213 12.23 -90.143 9.586 -90.321 5.338 Z M -88.81 -0.184 C -89.933 1.376 -92.46 2.479 -93.384 4.729 C -93.397 4.761 -93.437 4.753 -93.431 4.716 C -93.064 2.194 -94.038 -0.734 -93.124 -4.084 C -93.111 -4.132 -93.171 -4.164 -93.2 -4.127 C -94.581 -2.429 -95.048 -0.439 -95.124 1.711 C -95.218 4.352 -94.29 6.278 -93.83 8.069 C -93.82 8.112 -93.765 8.109 -93.754 8.066 C -93.093 5.718 -89.773 4.304 -88.734 -0.147 C -88.72 -0.194 -88.781 -0.224 -88.81 -0.184 Z M -85.763 -5.429 C -87.61 -3.981 -90.432 -2.586 -91.038 -1.579 C -91.048 -1.558 -91.08 -1.574 -91.075 -1.595 L -90.39 -4.882 C -90.083 -6.277 -89.818 -7.613 -89.046 -8.862 C -89.022 -8.899 -89.067 -8.942 -89.101 -8.915 C -92.618 -6.13 -92.104 -2.103 -92.259 1.195 C -92.261 1.23 -92.219 1.246 -92.195 1.222 C -90.125 -1.024 -86.75 -2.331 -85.705 -5.384 C -85.692 -5.421 -85.732 -5.453 -85.763 -5.429 Z M -83.146 -10.478 C -86.254 -10.379 -88.537 -7.762 -89.516 -4.43 C -89.521 -4.411 -89.495 -4.395 -89.479 -4.406 C -85.198 -7.544 -85.438 -8.889 -83.12 -10.382 C -83.078 -10.409 -83.096 -10.478 -83.146 -10.478 Z M -47.318 28.335 C -51.682 30.309 -53.435 29.194 -57.603 29.996 C -57.629 30.004 -57.642 29.966 -57.619 29.954 C -54.714 28.388 -54.168 25.848 -53.16 24.19 C -53.139 24.159 -53.175 24.119 -53.21 24.137 C -56.406 25.694 -57.453 29.281 -61.282 30.208 C -61.322 30.216 -61.322 30.27 -61.282 30.281 C -59.671 30.658 -58.453 31.365 -56.774 31.508 C -52.108 31.901 -48.698 30.477 -47.265 28.394 C -47.242 28.359 -47.281 28.319 -47.318 28.335 Z M -42.592 20.89 C -44.14 23.047 -47.62 23.85 -51.005 26.515 C -51.026 26.531 -51.052 26.507 -51.034 26.483 C -49.32 24.201 -49.507 21.086 -48.88 18.344 C -48.872 18.307 -48.919 18.284 -48.945 18.313 C -52.226 22.036 -51.814 26.103 -53.265 28.008 C -53.283 28.033 -53.268 28.067 -53.236 28.067 C -48.271 28.059 -42.909 23.706 -42.526 20.914 C -42.521 20.876 -42.568 20.861 -42.592 20.89 Z M -40.384 12.926 C -40.387 12.878 -40.455 12.866 -40.476 12.911 C -41.956 15.905 -43.733 16.588 -45.969 19.859 C -45.985 19.88 -46.014 19.867 -46.005 19.843 C -45.127 17.205 -46.578 13.71 -46.633 11.37 C -46.633 11.322 -46.701 11.311 -46.719 11.356 C -48.488 15.642 -46.625 20.053 -48.181 22.944 C -48.2 22.978 -48.168 23.013 -48.134 22.997 C -45.823 21.845 -43.798 20.193 -42.206 18.161 C -41.19 16.62 -40.29 14.961 -40.384 12.926 Z M -41.14 4.147 C -41.158 4.1 -41.229 4.113 -41.229 4.163 C -41.313 7.445 -43.237 9.985 -43.623 12.251 C -43.628 12.278 -43.659 12.276 -43.659 12.247 C -43.728 9.31 -45.848 7.54 -47.037 5.316 C -47.061 5.274 -47.124 5.29 -47.124 5.338 C -47.302 9.586 -44.234 12.23 -44.334 15.772 C -44.334 15.818 -44.279 15.838 -44.253 15.804 C -41.833 12.461 -39.558 8.415 -41.14 4.147 Z M -42.324 1.711 C -42.4 -0.439 -42.867 -2.429 -44.247 -4.127 C -44.276 -4.164 -44.334 -4.132 -44.323 -4.084 C -43.41 -0.734 -44.384 2.194 -44.014 4.716 C -44.009 4.753 -44.05 4.761 -44.064 4.729 C -44.987 2.479 -47.515 1.376 -48.638 -0.184 C -48.664 -0.224 -48.725 -0.194 -48.714 -0.147 C -47.675 4.304 -44.355 5.718 -43.693 8.066 C -43.683 8.109 -43.628 8.112 -43.617 8.069 C -43.158 6.278 -42.229 4.352 -42.324 1.711 Z M -48.347 -8.915 C -48.381 -8.942 -48.425 -8.899 -48.402 -8.862 C -47.63 -7.613 -47.365 -6.277 -47.058 -4.882 L -46.373 -1.595 C -46.368 -1.574 -46.4 -1.558 -46.41 -1.579 C -47.016 -2.586 -49.835 -3.981 -51.685 -5.429 C -51.714 -5.453 -51.756 -5.421 -51.743 -5.384 C -50.698 -2.331 -47.323 -1.024 -45.253 1.222 C -45.229 1.246 -45.187 1.23 -45.19 1.195 C -45.344 -2.103 -44.83 -6.13 -48.347 -8.915 Z M -54.301 -10.478 C -54.351 -10.478 -54.367 -10.409 -54.328 -10.382 C -52.01 -8.889 -52.249 -7.544 -47.969 -4.406 C -47.95 -4.395 -47.927 -4.411 -47.932 -4.43 C -48.911 -7.762 -51.194 -10.379 -54.301 -10.478 Z" fill="#0A6EB4" fill-rule="evenodd" transform="matrix(0.9999999999999999, 0, 0, 0.9999999999999999, 416.4249634806059, 203.63833921608827)"/>
</svg>