<?xml version="1.0" encoding="utf-8"?>
<svg viewBox="-7.8596 9.7267 24.5155 51.0174" xmlns="http://www.w3.org/2000/svg">
  <path d="M 5.421 20.56 C 5.597 20.936 5.923 21.22 6.319 21.343 C 6.891 21.432 7.474 21.288 7.939 20.943 C 10.062 19.801 11.47 17.669 11.684 15.268 C 11.731 13.748 11 12.967 9.242 12.665 C 7.446 13.449 6.052 14.939 5.388 16.783 C 4.807 17.977 4.819 19.375 5.421 20.56 M 16.089 17.742 C 14.653 21.421 10.635 23.816 6.569 23.816 C 5.488 23.819 4.414 23.644 3.391 23.297 C 1.96 22.93 0.804 21.879 0.301 20.491 C -0.29 18.587 0.049 16.516 1.217 14.9 C 3.162 11.665 6.671 9.697 10.446 9.727 C 10.446 9.727 12.529 9.76 13.109 10.414 C 13.261 10.725 13.34 11.068 13.339 11.415 C 14.559 11.657 15.623 12.394 16.279 13.452 C 16.841 14.841 16.772 16.407 16.089 17.742 M 11.383 45.375 C 11.208 39.614 10.74 33.867 9.982 28.154 C 9.811 27.526 9.097 26.1 6.162 26.42 C 5.129 26.483 4.195 27.053 3.668 27.943 C 1.644 31.549 -0.135 35.287 -1.657 39.132 C -4.428 45.593 -6.497 52.333 -7.828 59.237 C -7.939 59.639 -7.75 60.064 -7.377 60.251 C -6.754 60.578 -6.06 60.747 -5.356 60.744 C -4.671 60.747 -3.994 60.585 -3.385 60.27 L -3.316 60.234 L -3.035 59.188 C -0.599 50.09 1.511 42.21 5.836 33.643 C 6.259 38.393 6.44 42.903 6.631 47.668 C 6.705 49.51 6.781 51.416 6.873 53.327 C 6.916 54.162 6.931 55.121 6.946 56.049 C 6.959 56.882 6.973 57.743 7.006 58.496 C 7.015 59.195 7.406 59.834 8.025 60.162 C 8.963 60.647 10.077 60.649 11.017 60.167 C 12.072 59.587 11.983 58.026 11.805 54.915 C 11.763 54.179 11.498 47.669 11.383 45.375" style="fill: rgb(20, 66, 139);" transform="matrix(0.9999999999999999, 0, 0, 0.9999999999999999, 0, -1.7763568394002505e-15)"/>
</svg>