<?xml version="1.0" encoding="utf-8"?>
<svg viewBox="-7.8596 9.7267 96.8206 51.0174" xmlns="http://www.w3.org/2000/svg">
  <path d="M 5.421 20.56 C 5.597 20.936 5.923 21.22 6.319 21.343 C 6.891 21.432 7.474 21.288 7.939 20.943 C 10.062 19.801 11.47 17.669 11.684 15.268 C 11.731 13.748 11 12.967 9.242 12.665 C 7.446 13.449 6.052 14.939 5.388 16.783 C 4.807 17.977 4.819 19.375 5.421 20.56 M 16.089 17.742 C 14.653 21.421 10.635 23.816 6.569 23.816 C 5.488 23.819 4.414 23.644 3.391 23.297 C 1.96 22.93 0.804 21.879 0.301 20.491 C -0.29 18.587 0.049 16.516 1.217 14.9 C 3.162 11.665 6.671 9.697 10.446 9.727 C 10.446 9.727 12.529 9.76 13.109 10.414 C 13.261 10.725 13.34 11.068 13.339 11.415 C 14.559 11.657 15.623 12.394 16.279 13.452 C 16.841 14.841 16.772 16.407 16.089 17.742 M 11.383 45.375 C 11.208 39.614 10.74 33.867 9.982 28.154 C 9.811 27.526 9.097 26.1 6.162 26.42 C 5.129 26.483 4.195 27.053 3.668 27.943 C 1.644 31.549 -0.135 35.287 -1.657 39.132 C -4.428 45.593 -6.497 52.333 -7.828 59.237 C -7.939 59.639 -7.75 60.064 -7.377 60.251 C -6.754 60.578 -6.06 60.747 -5.356 60.744 C -4.671 60.747 -3.994 60.585 -3.385 60.27 L -3.316 60.234 L -3.035 59.188 C -0.599 50.09 1.511 42.21 5.836 33.643 C 6.259 38.393 6.44 42.903 6.631 47.668 C 6.705 49.51 6.781 51.416 6.873 53.327 C 6.916 54.162 6.931 55.121 6.946 56.049 C 6.959 56.882 6.973 57.743 7.006 58.496 C 7.015 59.195 7.406 59.834 8.025 60.162 C 8.963 60.647 10.077 60.649 11.017 60.167 C 12.072 59.587 11.983 58.026 11.805 54.915 C 11.763 54.179 11.498 47.669 11.383 45.375 M 79.331 34.747 C 79.331 33.328 78.82 32.78 77.893 32.78 C 77.079 32.78 76.266 33.309 76.266 34.747 L 79.331 34.747 Z M 73.22 35.882 C 73.22 32.326 75.396 30.717 78.044 30.717 C 81.034 30.717 82.282 32.534 82.282 35.277 C 82.282 35.599 82.263 36.223 82.226 36.564 L 76.228 36.564 C 76.285 38.191 76.966 38.796 78.215 38.796 C 79.046 38.852 79.765 38.226 79.823 37.396 L 82.226 37.983 C 81.866 39.818 80.39 41.01 78.044 41.01 C 74.393 41.01 73.22 38.55 73.22 35.882 M 71.498 40.783 L 68.641 40.783 L 68.641 26.499 L 71.498 26.499 L 71.498 40.783 Z M 60.241 38.058 C 60.728 38.461 61.333 38.693 61.963 38.72 C 63.287 38.72 63.817 37.623 63.817 35.712 C 63.817 33.726 63.231 32.988 62.076 32.988 C 61.4 33.04 60.758 33.305 60.241 33.744 L 60.241 38.058 Z M 57.422 30.925 L 59.844 30.925 L 60.014 31.928 C 60.84 31.13 61.95 30.694 63.098 30.717 C 65.198 30.717 66.806 32.004 66.806 35.636 C 66.806 39.553 64.971 41.01 62.795 41.01 C 61.834 41.055 60.894 40.714 60.184 40.064 L 60.184 44.794 L 57.422 44.794 L 57.422 30.925 Z M 52.692 35.788 C 52.692 33.631 52.106 32.874 50.838 32.874 C 49.552 32.874 48.834 33.688 48.834 35.826 C 48.834 38.02 49.383 38.891 50.782 38.891 C 52.03 38.891 52.692 38.096 52.692 35.788 M 45.844 35.901 C 45.844 32.742 47.49 30.717 50.914 30.717 C 54.338 30.717 55.663 32.78 55.663 35.693 C 55.663 38.91 54.188 41.01 50.649 41.01 C 47.073 41.01 45.844 38.853 45.844 35.901 M 41.606 34.747 C 41.606 33.328 41.095 32.78 40.169 32.78 C 39.355 32.78 38.542 33.309 38.542 34.747 L 41.606 34.747 Z M 35.495 35.882 C 35.495 32.326 37.67 30.717 40.32 30.717 C 43.308 30.717 44.558 32.534 44.558 35.277 C 44.558 35.599 44.538 36.223 44.501 36.564 L 38.503 36.564 C 38.559 38.191 39.241 38.796 40.489 38.796 C 41.32 38.852 42.039 38.226 42.097 37.396 L 44.5 37.983 C 44.141 39.818 42.665 41.01 40.319 41.01 C 36.668 41.01 35.494 38.55 35.494 35.882 M 29.27 34.009 C 30.765 34.009 31.957 33.574 31.957 31.569 C 31.957 29.809 30.916 29.431 29.497 29.431 L 28.097 29.431 L 28.097 34.009 L 29.27 34.009 Z M 28.097 40.783 L 25.202 40.783 L 25.202 27.085 L 30.386 27.085 C 33.886 27.085 34.946 29.185 34.946 31.361 C 34.946 34.653 33.149 36.355 29.592 36.355 L 28.097 36.355 L 28.097 40.783 Z M 86.123 56.978 C 85.666 57.408 85.067 57.657 84.439 57.678 C 83.096 57.678 82.547 56.637 82.547 54.878 C 82.547 53.175 83.096 51.907 84.534 51.907 C 85.109 51.917 85.665 52.109 86.123 52.456 L 86.123 56.978 Z M 88.961 45.418 L 86.218 45.418 L 86.218 50.47 C 85.532 49.867 84.631 49.567 83.72 49.637 C 81.677 49.637 79.558 51.018 79.558 54.972 C 79.558 58.51 81.128 59.929 83.436 59.929 C 84.54 59.981 85.609 59.537 86.35 58.718 L 86.407 58.737 L 86.577 59.702 L 88.961 59.702 L 88.961 45.418 Z M 72.009 53.667 C 72.009 52.229 72.823 51.699 73.636 51.699 C 74.563 51.699 75.074 52.248 75.074 53.667 L 72.009 53.667 Z M 73.787 59.929 C 76.133 59.929 77.609 58.737 77.969 56.902 L 75.566 56.316 C 75.508 57.146 74.788 57.772 73.958 57.716 C 72.709 57.716 72.028 57.11 71.971 55.483 L 77.969 55.483 C 78.007 55.143 78.025 54.518 78.025 54.197 C 78.025 51.453 76.777 49.637 73.787 49.637 C 71.139 49.637 68.963 51.245 68.963 54.802 C 68.963 57.47 70.136 59.929 73.787 59.929 M 61.471 53.667 C 61.471 52.229 62.284 51.699 63.098 51.699 C 64.025 51.699 64.536 52.248 64.536 53.667 L 61.471 53.667 Z M 63.249 59.929 C 65.595 59.929 67.071 58.737 67.43 56.902 L 65.028 56.316 C 64.969 57.146 64.25 57.772 63.42 57.716 C 62.171 57.716 61.49 57.11 61.433 55.483 L 67.43 55.483 C 67.468 55.143 67.487 54.518 67.487 54.197 C 67.487 51.453 66.239 49.637 63.249 49.637 C 60.6 49.637 58.425 51.245 58.425 54.802 C 58.425 57.47 59.598 59.929 63.249 59.929 M 56.59 59.702 L 56.59 46.004 L 53.941 46.004 L 53.941 55.71 L 48.757 46.004 L 45.276 46.004 L 45.276 59.702 L 47.943 59.702 L 47.943 50.034 L 53.222 59.702 L 56.59 59.702 Z M 38.9 52.967 C 38.9 50.715 37.954 49.637 35.779 49.637 C 34.619 49.625 33.498 50.051 32.639 50.829 L 32.487 49.845 L 29.951 49.845 L 29.951 59.702 L 32.808 59.702 L 32.808 52.721 C 33.346 52.252 34.026 51.979 34.738 51.945 C 35.627 51.945 36.043 52.399 36.043 53.459 L 36.043 59.702 L 38.9 59.702 L 38.9 52.967 Z M 27.794 49.845 L 24.937 49.845 L 24.937 59.702 L 27.794 59.702 L 27.794 49.845 Z M 28.098 46.818 C 28.083 45.493 26.639 44.681 25.498 45.356 C 24.358 46.032 24.377 47.688 25.532 48.338 C 25.79 48.483 26.08 48.559 26.376 48.559 C 27.373 48.66 28.209 47.815 28.098 46.818" style="fill: rgb(20, 66, 139);" transform="matrix(0.9999999999999999, 0, 0, 0.9999999999999999, 0, -1.7763568394002505e-15)"/>
</svg>